<svg width="77" height="77" viewBox="0 0 77 77" fill="none" xmlns="http://www.w3.org/2000/svg">
<g id="icon / jam-icons / outline &#38; logos / linkedin">
<path id="Vector" d="M70.4516 44.0152V67.6894H56.7264V45.6001C56.7264 40.0497 54.7404 36.2638 49.7739 36.2638C45.9817 36.2638 43.723 38.8177 42.7316 41.2849C42.3691 42.1672 42.276 43.396 42.276 44.6312V67.6894H28.5444C28.5444 67.6894 28.7305 30.2803 28.5444 26.4014H42.276V32.2534L42.1862 32.3882H42.276V32.2534C44.0984 29.4461 47.3548 25.4325 54.6474 25.4325C63.6788 25.4325 70.4516 31.3358 70.4516 44.0152ZM14.1839 6.50012C9.49009 6.50012 6.4165 9.58012 6.4165 13.6322C6.4165 17.5945 9.40025 20.7676 14.0042 20.7676H14.094C18.8841 20.7676 21.8582 17.5945 21.8582 13.6322C21.7748 9.58012 18.8873 6.50012 14.1871 6.50012H14.1839ZM7.23142 67.6894H20.9567V26.4014H7.23142V67.6894Z" fill="white"/>
</g>
</svg>
